# xmcd
#
# Track frame offsets: 
#        150
#        25129
#        44282
#        67614
#        90673
#        118075
#        133804
#        153075
#        178765
#        199788
#        227029
#        254673
#
# Disc length: 4437 seconds
#
# Revision: 0
# Processed by: cddbd v1.5.2PL0 Copyright (c) Steve Scherf et al.
# Submitted via: ExactAudioCopy v0.95a5
#
DISCID=9d11530c
DTITLE=Blindside Blues Band - Raised on Rock
DYEAR=2010
DGENRE=Blues-Rock
TTITLE0=Raised on Rock
TTITLE1=Night Train
TTITLE2=Folsom Prison Blues
TTITLE3=Wave On
TTITLE4=Child of the Sun
TTITLE5=War in the Streets
TTITLE6=Take You Down
TTITLE7=Bury the Axe
TTITLE8=World on Fire
TTITLE9=Love aint worth the Blues
TTITLE10=Backstreet Rider
TTITLE11=Born with the Blues 
EXTD=
EXTT0=
EXTT1=
EXTT2=
EXTT3=
EXTT4=
EXTT5=
EXTT6=
EXTT7=
EXTT8=
EXTT9=
EXTT10=
EXTT11=
PLAYORDER=
